Coordinates
version=1
nRows=37
nColumns=38
inDegrees=no

Units are S.I. units (second, meters, Newtons, ...)
If the header above contains a line with 'inDegrees', this indicates whether rotational values are in degrees (yes) or radians (no).

endheader
time	pelvis_tilt	pelvis_list	pelvis_rotation	pelvis_tx	pelvis_ty	pelvis_tz	hip_flexion_r	hip_adduction_r	hip_rotation_r	knee_angle_r	ankle_angle_r	subtalar_angle_r	mtp_angle_r	hip_flexion_l	hip_adduction_l	hip_rotation_l	knee_angle_l	ankle_angle_l	subtalar_angle_l	mtp_angle_l	lumbar_extension	lumbar_bending	lumbar_rotation	arm_flex_r	arm_add_r	arm_rot_r	elbow_flex_r	pro_sup_r	wrist_flex_r	wrist_dev_r	arm_flex_l	arm_add_l	arm_rot_l	elbow_flex_l	pro_sup_l	wrist_flex_l	wrist_dev_l
0	-0.147599	1.40199	-1.49837	0.667562	1.45314	0.962293	-0.314625	0.0620504	-0.128641	0.122844	0.157902	0	0	0.344782	-0.10714	-0.221716	0.534461	0.135086	0	0	-0.283715	0.0433668	0.0569962	-0.00593662	-0.196766	0.067883	0.561371	1.12263	0	0	-0.188913	-0.19482	0.277779	0.651074	0.903302	0	0
0.01	-0.144547	1.406	-1.50283	0.668057	1.44349	0.960612	-0.320646	0.0591317	-0.126338	0.124722	0.165188	0	0	0.346033	-0.104163	-0.239973	0.486313	0.137918	0	0	-0.279454	0.0425951	0.0570612	-0.0008769	-0.19788	0.0755092	0.559825	1.10429	0	0	-0.19089	-0.191427	0.281683	0.642935	0.900702	0	0
0.02	-0.131562	1.40891	-1.51715	0.668602	1.43341	0.958994	-0.328019	0.0542228	-0.127302	0.127696	0.173572	0	0	0.343508	-0.0984206	-0.257293	0.436288	0.140551	0	0	-0.276943	0.0399284	0.0565902	0.00326265	-0.197998	0.0799745	0.559727	1.0833	0	0	-0.19418	-0.188485	0.283474	0.637025	0.897989	0	0
0.03	-0.113784	1.41143	-1.53607	0.669248	1.42311	0.957365	-0.336062	0.0484951	-0.129242	0.130697	0.182019	0	0	0.339131	-0.0907084	-0.272098	0.385427	0.142949	0	0	-0.274943	0.036456	0.0557796	0.00690365	-0.197742	0.0833084	0.559906	1.06678	0	0	-0.19797	-0.185789	0.28449	0.632258	0.895951	0	0
0.04	-0.0928068	1.41349	-1.55828	0.669994	1.41266	0.955741	-0.344598	0.0421174	-0.131845	0.13403	0.190413	0	0	0.332627	-0.0811325	-0.282759	0.333074	0.144132	0	0	-0.273379	0.0324435	0.055132	0.00997882	-0.197437	0.0858467	0.560774	1.05136	0	0	-0.201898	-0.183271	0.285044	0.628124	0.893035	0	0
0.05	-0.0682461	1.41488	-1.58447	0.670802	1.40204	0.954161	-0.353701	0.0349438	-0.134924	0.137926	0.198685	0	0	0.323495	-0.0697702	-0.287602	0.278975	0.142959	0	0	-0.272398	0.0276726	0.0548899	0.0125461	-0.196874	0.0869462	0.562209	1.03744	0	0	-0.205977	-0.18131	0.286456	0.625209	0.891045	0	0
0.06	-0.0422195	1.41555	-1.61288	0.671609	1.39123	0.952628	-0.363236	0.0271266	-0.138189	0.142709	0.206674	0	0	0.311905	-0.0577112	-0.286416	0.224424	0.138302	0	0	-0.271969	0.0224084	0.0551691	0.0147304	-0.19612	0.0871469	0.564023	1.02503	0	0	-0.210365	-0.179534	0.287043	0.622734	0.888834	0	0
0.07	-0.0199321	1.41584	-1.63871	0.672273	1.38022	0.951099	-0.372498	0.0194374	-0.140894	0.14879	0.214081	0	0	0.299294	-0.0471832	-0.280478	0.172821	0.130169	0	0	-0.271609	0.0172844	0.0566819	0.0162535	-0.19544	0.0875307	0.566565	1.01151	0	0	-0.215058	-0.178148	0.287095	0.620781	0.884651	0	0
0.08	-0.00365343	1.41557	-1.65995	0.672795	1.369	0.949602	-0.381503	0.0120038	-0.14253	0.156578	0.221006	0	0	0.286681	-0.0392423	-0.272854	0.127654	0.119412	0	0	-0.271483	0.0125927	0.05999	0.0167614	-0.194853	0.0873303	0.570021	0.999558	0	0	-0.219946	-0.177533	0.28854	0.619725	0.882047	0	0
0.09	0.00570682	1.41492	-1.67527	0.67323	1.35762	0.948167	-0.389897	0.00507023	-0.14326	0.166397	0.227355	0	0	0.276752	-0.0347422	-0.267791	0.0948824	0.10891	0	0	-0.271542	0.00855848	0.0647789	0.0163918	-0.194651	0.0874374	0.574321	0.989839	0	0	-0.224828	-0.177451	0.290748	0.619154	0.881429	0	0
0.1	0.00656545	1.41494	-1.68209	0.673588	1.34611	0.946742	-0.397091	-0.000378814	-0.142555	0.177316	0.232058	0	0	0.27478	-0.0351019	-0.271169	0.0837444	0.104695	0	0	-0.270684	0.0057214	0.0698111	0.015746	-0.194104	0.0862829	0.577905	0.986433	0	0	-0.229959	-0.177649	0.291703	0.618671	0.880455	0	0
0.11	0.00864426	1.414	-1.69092	0.673867	1.33441	0.945508	-0.404304	-0.00689575	-0.141799	0.190344	0.236074	0	0	0.275254	-0.0372164	-0.277136	0.0867342	0.103223	0	0	-0.270478	0.00214286	0.075574	0.0145447	-0.19348	0.0850119	0.581873	0.983074	0	0	-0.234962	-0.178488	0.293204	0.61829	0.879162	0	0
0.12	0.0110841	1.41282	-1.70053	0.674138	1.3225	0.944395	-0.410827	-0.0141967	-0.140713	0.205249	0.239094	0	0	0.279904	-0.0415289	-0.287155	0.105728	0.10634	0	0	-0.269985	-0.00179504	0.0819752	0.0123397	-0.192903	0.0834478	0.586276	0.979061	0	0	-0.239915	-0.17998	0.296135	0.618108	0.877623	0	0
0.13	0.011861	1.41227	-1.709	0.67436	1.31032	0.943325	-0.415855	-0.0217201	-0.138312	0.221925	0.241008	0	0	0.288512	-0.0482332	-0.300142	0.138006	0.113336	0	0	-0.267926	-0.00563504	0.0891646	0.00867605	-0.192451	0.0826365	0.590978	0.975845	0	0	-0.245248	-0.182135	0.300285	0.61817	0.876177	0	0
0.14	0.0110231	1.4127	-1.71602	0.674577	1.29783	0.942267	-0.41874	-0.0293482	-0.135244	0.240962	0.241821	0	0	0.29957	-0.0567156	-0.313912	0.179419	0.122899	0	0	-0.263914	-0.00916798	0.0968463	0.00353062	-0.192192	0.082011	0.595923	0.973386	0	0	-0.251074	-0.184895	0.305228	0.618464	0.874283	0	0
0.15	0.00707282	1.41457	-1.72	0.674832	1.285	0.941174	-0.418771	-0.0368046	-0.131611	0.262812	0.241472	0	0	0.312945	-0.0671779	-0.32915	0.228684	0.134705	0	0	-0.257319	-0.0118344	0.104911	-0.00330514	-0.192279	0.0810812	0.60125	0.971026	0	0	-0.257673	-0.188057	0.310633	0.618867	0.869959	0	0
0.16	-0.00395022	1.41849	-1.71746	0.675073	1.27177	0.939937	-0.414888	-0.0436455	-0.127036	0.288413	0.240037	0	0	0.328617	-0.0807043	-0.348033	0.284331	0.149326	0	0	-0.247263	-0.012869	0.114255	-0.0127374	-0.193022	0.0797967	0.60779	0.968448	0	0	-0.265144	-0.191908	0.319032	0.619989	0.862873	0	0
0.17	-0.00762389	1.42294	-1.72352	0.675143	1.25824	0.938662	-0.402499	-0.0576962	-0.140285	0.329571	0.242736	0	0	0.337445	-0.0902201	-0.358783	0.326473	0.159725	0	0	-0.235544	-0.0153855	0.124373	-0.0226988	-0.193103	0.0777883	0.612707	0.967542	0	0	-0.273452	-0.195597	0.323817	0.620411	0.858657	0	0
0.18	-0.00284805	1.42838	-1.7361	0.675727	1.24427	0.937382	-0.391992	-0.0690427	-0.13997	0.364406	0.238569	0	0	0.344525	-0.0960567	-0.368514	0.362929	0.16984	0	0	-0.221487	-0.017789	0.132653	-0.0348167	-0.193834	0.0747344	0.618591	0.967179	0	0	-0.282288	-0.199012	0.33018	0.620291	0.854821	0	0
0.19	0.011077	1.43335	-1.75631	0.676548	1.23009	0.936254	-0.380466	-0.0815668	-0.139115	0.401271	0.230441	0	0	0.347234	-0.0978759	-0.377914	0.388072	0.170856	0	0	-0.207369	-0.0211136	0.13889	-0.0473578	-0.19434	0.0716627	0.623996	0.967803	0	0	-0.291743	-0.202979	0.336218	0.621649	0.851704	0	0
0.2	0.0408906	1.4376	-1.78998	0.677705	1.21594	0.935346	-0.366563	-0.0962625	-0.139984	0.442709	0.218499	0	0	0.346636	-0.0952292	-0.387023	0.402887	0.155959	0	0	-0.193944	-0.0263175	0.141931	-0.0591329	-0.194178	0.0679154	0.627994	0.968863	0	0	-0.301094	-0.207447	0.340912	0.623595	0.847707	0	0
0.21	0.0941292	1.44071	-1.84299	0.679335	1.20209	0.934759	-0.349466	-0.113478	-0.14377	0.489753	0.201512	0	0	0.345228	-0.0874784	-0.392936	0.412674	0.129022	0	0	-0.182206	-0.0344633	0.140341	-0.0690986	-0.192829	0.0630673	0.629883	0.970421	0	0	-0.309151	-0.21269	0.344515	0.625875	0.842489	0	0
0.22	0.158425	1.4403	-1.90078	0.681636	1.18856	0.935026	-0.339636	-0.122362	-0.126011	0.525633	0.17183	0	0	0.342952	-0.0760112	-0.392821	0.42506	0.10496	0	0	-0.175548	-0.0443678	0.132582	-0.0768013	-0.189993	0.0555553	0.629168	0.97496	0	0	-0.313835	-0.219056	0.352206	0.627649	0.833219	0	0
0.23	0.247262	1.44132	-1.98086	0.683865	1.17564	0.935093	-0.31364	-0.140745	-0.131489	0.584912	0.141755	0	0	0.349006	-0.0644563	-0.390737	0.44923	0.09682	0	0	-0.16758	-0.0576419	0.122437	-0.0830299	-0.185167	0.046921	0.627278	0.979915	0	0	-0.317047	-0.227871	0.361552	0.631347	0.824871	0	0
0.24	0.339771	1.44335	-2.06204	0.686082	1.16296	0.935099	-0.281741	-0.157023	-0.134497	0.649313	0.105992	0	0	0.360165	-0.05433	-0.385674	0.480595	0.0994835	0	0	-0.158308	-0.0705241	0.11028	-0.0891713	-0.179122	0.0362998	0.624333	0.988855	0	0	-0.319289	-0.240164	0.379214	0.637776	0.806145	0	0
0.25	0.419994	1.4443	-2.13075	0.688068	1.15043	0.935219	-0.248634	-0.170093	-0.132711	0.714957	0.0651525	0	0	0.369324	-0.0460736	-0.380403	0.51047	0.101379	0	0	-0.150657	-0.0821856	0.0980234	-0.0956009	-0.173739	0.0290527	0.623048	0.995009	0	0	-0.320767	-0.253398	0.397212	0.645036	0.785228	0	0
0.26	0.487306	1.44514	-2.18673	0.689911	1.13801	0.935354	-0.214427	-0.180059	-0.127713	0.780232	0.02028	0	0	0.375709	-0.039375	-0.375715	0.535544	0.0985621	0	0	-0.14365	-0.0920539	0.0862937	-0.102625	-0.169341	0.0240881	0.623296	0.997681	0	0	-0.321293	-0.266859	0.414988	0.652176	0.765531	0	0
0.27	0.660436	1.44817	-2.35135	0.69183	1.12595	0.933796	-0.147017	-0.206954	-0.128882	0.881057	-0.0274372	0	0	0.391857	-0.0234417	-0.374318	0.555565	0.0927752	0	0	-0.124296	-0.11098	0.0772585	-0.112409	-0.164961	0.0211531	0.626832	0.998181	0	0	-0.324378	-0.283947	0.435443	0.665711	0.742707	0	0
0.28	0.598765	1.44584	-2.27445	0.693887	1.11359	0.935732	-0.147601	-0.196406	-0.120029	0.902362	-0.0747074	0	0	0.377177	-0.0247683	-0.368761	0.56658	0.0905286	0	0	-0.132262	-0.107856	0.0627392	-0.118118	-0.164115	0.0194575	0.62743	0.998678	0	0	-0.318375	-0.292481	0.450427	0.66545	0.734042	0	0
0.29	0.631642	1.44466	-2.29471	0.696114	1.1018	0.936237	-0.118902	-0.203039	-0.118824	0.956049	-0.126068	0	0	0.370212	-0.0168508	-0.36646	0.573396	0.0928964	0	0	-0.130598	-0.113248	0.0505177	-0.124866	-0.163209	0.0184095	0.62974	0.999603	0	0	-0.312867	-0.303651	0.470352	0.668316	0.725301	0	0
0.3	0.719408	1.42989	-2.36957	0.698872	1.09071	0.938016	-0.0955619	-0.22938	-0.122574	1.00606	-0.180677	0	0	0.330445	0.0282926	-0.330191	0.516085	0.0837107	0	0	-0.13606	-0.134737	0.036784	-0.125963	-0.158846	0.0149282	0.623433	1.00589	0	0	-0.302257	-0.318406	0.498006	0.67115	0.701123	0	0
0.31	0.677986	1.43711	-2.31807	0.700542	1.07924	0.938133	-0.0692075	-0.218724	-0.116649	1.05018	-0.231868	0	0	0.342083	0.00562785	-0.359112	0.569221	0.104622	0	0	-0.134513	-0.125416	0.0284631	-0.132449	-0.161825	0.0179979	0.625202	1.00863	0	0	-0.295366	-0.324698	0.507862	0.671693	0.697532	0	0
0.32	0.676317	1.43698	-2.30635	0.702503	1.06842	0.939188	-0.0442095	-0.219264	-0.112503	1.09073	-0.280339	0	0	0.330654	0.0102883	-0.355892	0.571733	0.112633	0	0	-0.135927	-0.125914	0.0196665	-0.135106	-0.163101	0.0225469	0.62144	1.01209	0	0	-0.284116	-0.331378	0.520549	0.667955	0.692838	0	0
0.33	0.667646	1.43325	-2.28867	0.704307	1.05773	0.940822	-0.0239592	-0.221158	-0.107933	1.12739	-0.313434	0	0	0.312709	0.0190888	-0.347849	0.567455	0.117739	0	0	-0.141047	-0.128377	0.011918	-0.135761	-0.163791	0.0277936	0.613593	1.01824	0	0	-0.270846	-0.337977	0.533929	0.663078	0.687077	0	0
0.34	0.649471	1.42887	-2.26287	0.705822	1.04713	0.942776	-0.00510865	-0.22131	-0.101898	1.16244	-0.319143	0	0	0.292196	0.0271527	-0.338258	0.561737	0.123575	0	0	-0.14752	-0.130296	0.00602469	-0.13613	-0.163869	0.0309862	0.6043	1.0304	0	0	-0.25682	-0.343904	0.545195	0.65829	0.67999	0	0
0.35	0.626216	1.42472	-2.2328	0.707142	1.03657	0.944927	0.0130639	-0.219457	-0.0953539	1.19422	-0.304528	0	0	0.270165	0.033862	-0.328641	0.55438	0.129722	0	0	-0.154027	-0.131307	0.00143124	-0.136979	-0.163666	0.0332821	0.595192	1.04347	0	0	-0.242871	-0.348338	0.552622	0.652482	0.67746	0	0
0.36	0.59942	1.42116	-2.19924	0.708383	1.02609	0.94721	0.0303917	-0.215708	-0.0894252	1.22098	-0.280076	0	0	0.247213	0.0388919	-0.319387	0.54533	0.135105	0	0	-0.16027	-0.131191	-0.00261443	-0.138457	-0.163316	0.0340227	0.586937	1.05773	0	0	-0.229181	-0.351877	0.557093	0.64731	0.677844	0	0
